<svg width="25" height="29" viewBox="0 0 25 29" fill="none" xmlns="http://www.w3.org/2000/svg">
<path d="M15.4688 0C15.5334 0 15.5967 0.00638817 15.6582 0.0175781H15.8389C16.1267 0.0175781 16.4022 0.135962 16.6016 0.344727L23.7412 7.82129C23.9298 8.01909 24.0351 8.28266 24.0352 8.55664V21.5459C24.0348 25.087 21.1795 28.1504 17.7217 28.1504H6.46094C2.82557 28.1502 0.000323435 25.2307 0 21.5459V6.36426C0.000220924 2.8769 2.9553 0.0177809 6.46094 0.0175781H15.2822C15.3428 0.00671859 15.405 1.34289e-06 15.4688 0ZM6.46094 2.14258C4.10512 2.14276 2.1143 4.06931 2.11426 6.36426V21.5459C2.11473 24.0695 4.00654 26.0242 6.46094 26.0244H17.7217C19.9798 26.0244 21.9204 23.9427 21.9209 21.5459L21.9199 9.89453L20.6865 9.89941C20.2163 9.89884 19.6808 9.89785 19.0859 9.89648C16.5919 9.89103 14.5564 7.92607 14.4189 5.45215L14.4121 5.18555V2.1416L6.46094 2.14258ZM17 16.6367H7V14.6367H17V16.6367ZM14 12.6367H7V10.6367H14V12.6367ZM16.5264 5.18555C16.5266 6.61153 17.6737 7.76845 19.0908 7.77148L20.7617 7.77051L16.5264 3.33496V5.18555Z" fill="#BDBDBD"/>
</svg>
