<svg width="18" height="20" viewBox="0 0 18 20" fill="none" xmlns="http://www.w3.org/2000/svg">
<path d="M11.1182 0.0117188H11.2529C11.4573 0.0117188 11.6533 0.0959564 11.7949 0.244141L16.8672 5.55566C17.0014 5.69618 17.0761 5.88432 17.0762 6.0791V15.3066C17.0762 17.8227 15.0476 20 12.5908 20H4.59082C2.00771 20 0 17.9249 0 15.3066V4.52148C0.000239044 2.04379 2.10009 0.0117188 4.59082 0.0117188H10.8633C10.9046 0.00464652 10.9469 0 10.9902 0C11.0339 4.71569e-06 11.0765 0.00452641 11.1182 0.0117188ZM4.59082 1.52148C2.91726 1.52148 1.50247 2.8903 1.50195 4.52051V15.3066C1.50195 17.1 2.8467 18.4893 4.59082 18.4893H12.5908C14.1954 18.4893 15.5742 17.0098 15.5742 15.3066L15.5732 7.0293L14.6973 7.0332C14.3632 7.0328 13.983 7.03222 13.5605 7.03125C11.7885 7.02748 10.3418 5.63081 10.2441 3.87305L10.2393 3.68359V1.52051L4.59082 1.52148ZM11.7412 3.68359C11.7412 4.69686 12.5566 5.5193 13.5635 5.52148L14.751 5.52051L11.7412 2.36816V3.68359Z" fill="white"/>
<path d="M4.97339 9.23621H9.9467" stroke="white" stroke-width="2"/>
<path d="M4.97339 12.078H12.0781" stroke="white" stroke-width="2"/>
</svg>
