<svg width="76" height="23" viewBox="0 0 76 23" fill="none" xmlns="http://www.w3.org/2000/svg">
<path d="M13.1219 4.14376H4.34108V8.43552H10.828V12.5793H4.34108V22.0014H0V0H13.1219V4.14376Z" fill="white"/>
<path d="M18.5976 17.241C19.4115 18.055 20.4228 18.4743 21.6561 18.4743C22.8647 18.4743 23.8759 18.055 24.7145 17.241C25.5285 16.4271 25.9478 15.3911 25.9478 14.1332C25.9478 12.8753 25.5285 11.8393 24.7145 11.0254C23.9006 10.2114 22.8893 9.7921 21.6561 9.7921C20.4475 9.7921 19.4362 10.2114 18.5976 11.0254C17.8083 11.864 17.4136 12.8999 17.4136 14.1332C17.4136 15.3664 17.8083 16.4024 18.5976 17.241ZM27.5511 20.0528C25.9478 21.6561 23.9993 22.4454 21.6561 22.4454C19.3129 22.4454 17.3396 21.6561 15.7611 20.0528C14.1578 18.4496 13.3685 16.5011 13.3685 14.1579C13.3685 11.8393 14.1578 9.8661 15.7611 8.28752C17.3643 6.68428 19.3375 5.87032 21.6561 5.87032C23.9746 5.87032 25.9478 6.68428 27.5511 8.28752C29.1543 9.89076 29.9682 11.864 29.9682 14.1579C29.9682 16.4517 29.1543 18.4249 27.5511 20.0528Z" fill="white"/>
<path d="M40.8456 5.84566C42.5722 5.84566 44.0028 6.41297 45.0881 7.57223C46.2227 8.75617 46.79 10.3347 46.79 12.3573V22.0014H42.7449V12.8753C42.7449 11.8147 42.4735 11.0007 41.9062 10.4581C41.3389 9.91543 40.599 9.64411 39.637 9.64411C38.5764 9.64411 37.7378 9.96476 37.1212 10.6061C36.5045 11.2474 36.1839 12.2093 36.1839 13.5412V22.0014H32.1388V6.28964H36.1839V8.06554C37.1458 6.58562 38.6998 5.84566 40.8456 5.84566Z" fill="white"/>
<path d="M57.5934 10.1867H54.0416V16.723C54.0416 17.1423 54.1156 17.463 54.2636 17.685C54.4115 17.907 54.6335 18.0796 54.9295 18.1783C55.2255 18.2769 55.5955 18.3509 56.0395 18.3509C56.4834 18.3509 57.0014 18.3509 57.5687 18.3016V21.9767C56.1874 22.1494 55.0035 22.1494 54.0416 22.0261C53.0796 21.8781 52.2903 21.6068 51.6984 21.1875C51.1064 20.7681 50.6624 20.1762 50.3911 19.4362C50.1198 18.6963 49.9718 17.7836 49.9718 16.723V3.65045L54.0169 2.17054V6.28964H57.5687V10.1867H57.5934Z" fill="white"/>
<path d="M71.3072 12.5793C71.0852 11.5187 70.6166 10.7047 69.9013 10.1867C69.186 9.66878 68.372 9.39746 67.4101 9.39746C66.3248 9.39746 65.4122 9.66878 64.7216 10.2361C64.0063 10.7787 63.5376 11.568 63.3157 12.5793H71.3072ZM63.8336 16.945C64.5736 18.1536 65.8808 18.7703 67.7801 18.7703C69.334 18.7703 70.4932 18.2523 71.3072 17.1917L74.563 19.0662C73.0091 21.3108 70.7399 22.4207 67.7061 22.4207C65.1162 22.4207 63.0197 21.6314 61.4658 20.0775C59.8872 18.4989 59.1226 16.5257 59.1226 14.1332C59.1226 11.79 59.8872 9.81677 61.4411 8.2382C62.9703 6.63495 64.9682 5.84566 67.4101 5.84566C69.7286 5.84566 71.6278 6.63495 73.0831 8.2382C74.5877 9.84144 75.3523 11.8147 75.3523 14.1332C75.3523 14.4045 75.3276 14.6758 75.303 14.9471C75.2783 15.1938 75.2536 15.4405 75.2043 15.7118C71.2332 15.7118 67.2868 15.7118 63.3157 15.7118C63.439 16.1311 63.587 16.5257 63.8336 16.945Z" fill="white"/>
</svg>
