<svg width="95" height="35" viewBox="0 0 95 35" fill="none" xmlns="http://www.w3.org/2000/svg">
<path d="M13.1219 16.6984H4.34108V20.9901H10.828V25.1339H4.34108V34.556H0V12.5546H13.1219V16.6984Z" fill="white"/>
<path d="M18.5976 29.7956C19.4115 30.6096 20.4228 31.0289 21.6561 31.0289C22.8647 31.0289 23.8759 30.6096 24.7145 29.7956C25.5285 28.9817 25.9478 27.9457 25.9478 26.6878C25.9478 25.4299 25.5285 24.3939 24.7145 23.58C23.9006 22.766 22.8893 22.3467 21.6561 22.3467C20.4475 22.3467 19.4362 22.766 18.5976 23.58C17.8083 24.4186 17.4136 25.4545 17.4136 26.6878C17.4136 27.9211 17.8083 28.957 18.5976 29.7956ZM27.5511 32.6075C25.9478 34.2107 23.9993 35 21.6561 35C19.3129 35 17.3396 34.2107 15.7611 32.6075C14.1578 31.0042 13.3685 29.0557 13.3685 26.7125C13.3685 24.3939 14.1578 22.4207 15.7611 20.8421C17.3643 19.2389 19.3375 18.4249 21.6561 18.4249C23.9746 18.4249 25.9478 19.2389 27.5511 20.8421C29.1543 22.4454 29.9682 24.4186 29.9682 26.7125C29.9682 29.0063 29.1543 30.9796 27.5511 32.6075Z" fill="white"/>
<path d="M40.8456 18.4003C42.5722 18.4003 44.0028 18.9676 45.0881 20.1268C46.2227 21.3108 46.79 22.8894 46.79 24.9119V34.556H42.7449V25.4299C42.7449 24.3693 42.4735 23.5553 41.9062 23.0127C41.3389 22.47 40.599 22.1987 39.637 22.1987C38.5764 22.1987 37.7378 22.5194 37.1212 23.1607C36.5045 23.802 36.1839 24.7639 36.1839 26.0958V34.556H32.1388V18.8443H36.1839V20.6202C37.1458 19.1402 38.6998 18.4003 40.8456 18.4003Z" fill="white"/>
<path d="M57.5934 22.7414H54.0416V29.2777C54.0416 29.697 54.1156 30.0176 54.2636 30.2396C54.4115 30.4616 54.6335 30.6342 54.9295 30.7329C55.2255 30.8316 55.5955 30.9056 56.0395 30.9056C56.4834 30.9056 57.0014 30.9056 57.5687 30.8562V34.5314C56.1874 34.704 55.0035 34.704 54.0416 34.5807C53.0796 34.4327 52.2903 34.1614 51.6984 33.7421C51.1064 33.3228 50.6624 32.7308 50.3911 31.9908C50.1198 31.2509 49.9718 30.3383 49.9718 29.2777V16.2051L54.0169 14.7252V18.8443H57.5687V22.7414H57.5934Z" fill="white"/>
<path d="M71.3072 25.1339C71.0852 24.0733 70.6166 23.2593 69.9013 22.7414C69.186 22.2234 68.372 21.9521 67.4101 21.9521C66.3248 21.9521 65.4122 22.2234 64.7216 22.7907C64.0063 23.3333 63.5376 24.1226 63.3157 25.1339H71.3072ZM63.8336 29.4996C64.5736 30.7082 65.8808 31.3249 67.7801 31.3249C69.334 31.3249 70.4932 30.8069 71.3072 29.7463L74.563 31.6209C73.0091 33.8654 70.7399 34.9753 67.7061 34.9753C65.1162 34.9753 63.0197 34.186 61.4658 32.6321C59.8872 31.0536 59.1226 29.0803 59.1226 26.6878C59.1226 24.3446 59.8872 22.3714 61.4411 20.7928C62.9703 19.1896 64.9682 18.4003 67.4101 18.4003C69.7286 18.4003 71.6278 19.1896 73.0831 20.7928C74.5877 22.3961 75.3523 24.3693 75.3523 26.6878C75.3523 26.9591 75.3276 27.2304 75.303 27.5018C75.2783 27.7484 75.2536 27.9951 75.2043 28.2664C71.2332 28.2664 67.2868 28.2664 63.3157 28.2664C63.439 28.6857 63.587 29.0803 63.8336 29.4996Z" fill="white"/>
<path fill-rule="evenodd" clip-rule="evenodd" d="M59.9119 12.5546L94.2212 0V12.5546H59.9119Z" fill="#FF6600"/>
</svg>
