<svg width="53" height="32" viewBox="0 0 53 32" fill="none" xmlns="http://www.w3.org/2000/svg">
<path d="M7.76476 1.15063H1.03271V25.5472H7.76476V1.15063Z" stroke="#FF6600" stroke-width="2.0654" stroke-miterlimit="10" stroke-linecap="round" stroke-linejoin="round"/>
<path d="M7.76465 3.50781H15.0718" stroke="#FF6600" stroke-width="2.0654" stroke-miterlimit="10" stroke-linecap="round" stroke-linejoin="round"/>
<path d="M7.76465 20.5972H11.4182L17.5468 30.2615H23.5576" stroke="#FF6600" stroke-width="2.0654" stroke-miterlimit="10" stroke-linecap="round" stroke-linejoin="round"/>
<path d="M19.9041 22.9543L23.5577 30.2615H29.6862" stroke="#FF6600" stroke-width="2.0654" stroke-miterlimit="10" stroke-linecap="round" stroke-linejoin="round"/>
<path d="M26.0327 21.7758L29.6863 30.2615L34.5185 27.9044" stroke="#FF6600" stroke-width="2.0654" stroke-miterlimit="10" stroke-linecap="round" stroke-linejoin="round"/>
<path d="M30.8648 19.3007L34.5184 27.7864L39.3506 24.1328L32.1613 10.8149L27.329 8.3399L23.4397 12.2292C21.554 14.1149 18.4897 14.1149 16.604 12.2292L15.1897 10.8149L23.6755 1.03271H35.8148L44.3006 5.86488" stroke="#FF6600" stroke-width="2.0654" stroke-miterlimit="10" stroke-linecap="round" stroke-linejoin="round"/>
<path d="M38.1719 20.5972H44.3005" stroke="#FF6600" stroke-width="2.0654" stroke-miterlimit="10" stroke-linecap="round" stroke-linejoin="round"/>
<path d="M51.0328 1.15063H44.3008V25.5472H51.0328V1.15063Z" stroke="#FF6600" stroke-width="2.0654" stroke-miterlimit="10" stroke-linecap="round" stroke-linejoin="round"/>
</svg>
