<svg width="76" height="23" viewBox="0 0 76 23" fill="none"
     xmlns="http://www.w3.org/2000/svg">
    <path d="M13.1219 4.14376H4.34108V8.43552H10.828V12.5793H4.34108V22.0014H0V0H13.1219V4.14376Z"
          fill="white" fill-opacity="0.3"/>
    <path d="M18.5976 17.241C19.4115 18.055 20.4228 18.4743 21.6561 18.4743C22.8647 18.4743 23.8759 18.055 24.7145 17.241C25.5285 16.4271 25.9478 15.3912 25.9478 14.1332C25.9478 12.8753 25.5285 11.8394 24.7145 11.0254C23.9006 10.2114 22.8893 9.79214 21.6561 9.79214C20.4475 9.79214 19.4362 10.2114 18.5976 11.0254C17.8083 11.864 17.4136 12.9 17.4136 14.1332C17.4136 15.3665 17.8083 16.4024 18.5976 17.241ZM27.5511 20.0529C25.9478 21.6561 23.9993 22.4454 21.6561 22.4454C19.3129 22.4454 17.3396 21.6561 15.7611 20.0529C14.1578 18.4496 13.3685 16.5011 13.3685 14.1579C13.3685 11.8394 14.1578 9.86613 15.7611 8.28756C17.3643 6.68432 19.3375 5.87036 21.6561 5.87036C23.9746 5.87036 25.9478 6.68432 27.5511 8.28756C29.1543 9.8908 29.9682 11.864 29.9682 14.1579C29.9682 16.4518 29.1543 18.425 27.5511 20.0529Z"
          fill="white" fill-opacity="0.3"/>
    <path d="M40.8456 5.8457C42.5722 5.8457 44.0028 6.413 45.0881 7.57227C46.2227 8.7562 46.79 10.3348 46.79 12.3573V22.0014H42.7449V12.8753C42.7449 11.8147 42.4735 11.0007 41.9062 10.4581C41.3389 9.91547 40.599 9.64415 39.637 9.64415C38.5764 9.64415 37.7378 9.9648 37.1212 10.6061C36.5045 11.2474 36.1839 12.2093 36.1839 13.5413V22.0014H32.1388V6.28968H36.1839V8.06558C37.1458 6.58566 38.6998 5.8457 40.8456 5.8457Z"
          fill="white" fill-opacity="0.3"/>
    <path d="M57.5934 10.1866H54.0416V16.7229C54.0416 17.1422 54.1156 17.4629 54.2636 17.6849C54.4115 17.9068 54.6335 18.0795 54.9295 18.1782C55.2255 18.2768 55.5955 18.3508 56.0395 18.3508C56.4834 18.3508 57.0014 18.3508 57.5687 18.3015V21.9766C56.1874 22.1493 55.0035 22.1493 54.0416 22.0259C53.0796 21.8779 52.2903 21.6066 51.6984 21.1873C51.1064 20.768 50.6624 20.176 50.3911 19.4361C50.1198 18.6961 49.9718 17.7835 49.9718 16.7229V3.65032L54.0169 2.17041V6.28951H57.5687V10.1866H57.5934Z"
          fill="white" fill-opacity="0.3"/>
    <path d="M71.3072 12.5793C71.0852 11.5187 70.6166 10.7048 69.9013 10.1868C69.186 9.66882 68.372 9.3975 67.4101 9.3975C66.3248 9.3975 65.4122 9.66882 64.7216 10.2361C64.0063 10.7788 63.5376 11.568 63.3157 12.5793H71.3072ZM63.8336 16.9451C64.5736 18.1537 65.8808 18.7703 67.7801 18.7703C69.334 18.7703 70.4932 18.2523 71.3072 17.1917L74.563 19.0663C73.0091 21.3108 70.7399 22.4208 67.7061 22.4208C65.1162 22.4208 63.0197 21.6315 61.4658 20.0776C59.8872 18.499 59.1226 16.5258 59.1226 14.1332C59.1226 11.79 59.8872 9.81681 61.4411 8.23823C62.9703 6.63499 64.9682 5.8457 67.4101 5.8457C69.7286 5.8457 71.6278 6.63499 73.0831 8.23823C74.5877 9.84148 75.3523 11.8147 75.3523 14.1332C75.3523 14.4045 75.3276 14.6759 75.303 14.9472C75.2783 15.1938 75.2536 15.4405 75.2043 15.7118C71.2332 15.7118 67.2868 15.7118 63.3157 15.7118C63.439 16.1311 63.587 16.5258 63.8336 16.9451Z"
          fill="white" fill-opacity="0.3"/>
</svg>
