<svg width="95" height="35" viewBox="0 0 95 35" fill="none" xmlns="http://www.w3.org/2000/svg">
<path d="M13.1219 16.6984H4.34108V20.9902H10.828V25.134H4.34108V34.5561H0V12.5547H13.1219V16.6984Z" fill="white" fill-opacity="0.3"/>
<path d="M18.5972 29.7957C19.4112 30.6097 20.4224 31.029 21.6557 31.029C22.8643 31.029 23.8756 30.6097 24.7142 29.7957C25.5281 28.9818 25.9474 27.9458 25.9474 26.6879C25.9474 25.43 25.5281 24.394 24.7142 23.5801C23.9002 22.7661 22.889 22.3468 21.6557 22.3468C20.4471 22.3468 19.4358 22.7661 18.5972 23.5801C17.8079 24.4187 17.4133 25.4546 17.4133 26.6879C17.4133 27.9212 17.8079 28.9571 18.5972 29.7957ZM27.5507 32.6076C25.9474 34.2108 23.9989 35.0001 21.6557 35.0001C19.3125 35.0001 17.3393 34.2108 15.7607 32.6076C14.1575 31.0043 13.3682 29.0558 13.3682 26.7126C13.3682 24.394 14.1575 22.4208 15.7607 20.8422C17.3639 19.239 19.3372 18.425 21.6557 18.425C23.9742 18.425 25.9474 19.239 27.5507 20.8422C29.1539 22.4455 29.9679 24.4187 29.9679 26.7126C29.9679 29.0064 29.1539 30.9797 27.5507 32.6076Z" fill="white" fill-opacity="0.3"/>
<path d="M40.8455 18.4004C42.5721 18.4004 44.0027 18.9677 45.0879 20.127C46.2225 21.3109 46.7898 22.8895 46.7898 24.912V34.5561H42.7447V25.43C42.7447 24.3694 42.4734 23.5554 41.9061 23.0128C41.3388 22.4702 40.5989 22.1988 39.6369 22.1988C38.5763 22.1988 37.7377 22.5195 37.1211 23.1608C36.5044 23.8021 36.1838 24.764 36.1838 26.096V34.5561H32.1387V18.8444H36.1838V20.6203C37.1457 19.1403 38.6996 18.4004 40.8455 18.4004Z" fill="white" fill-opacity="0.3"/>
<path d="M57.5932 22.7413H54.0414V29.2776C54.0414 29.6969 54.1154 30.0176 54.2634 30.2395C54.4114 30.4615 54.6334 30.6342 54.9294 30.7328C55.2254 30.8315 55.5954 30.9055 56.0393 30.9055C56.4833 30.9055 57.0013 30.9055 57.5686 30.8562V34.5313C56.1873 34.704 55.0034 34.704 54.0414 34.5806C53.0795 34.4326 52.2902 34.1613 51.6982 33.742C51.1063 33.3227 50.6623 32.7307 50.391 31.9908C50.1197 31.2508 49.9717 30.3382 49.9717 29.2776V16.205L54.0168 14.7251V18.8442H57.5686V22.7413H57.5932Z" fill="white" fill-opacity="0.3"/>
<path d="M71.3077 25.134C71.0857 24.0734 70.6171 23.2594 69.9018 22.7415C69.1865 22.2235 68.3725 21.9522 67.4106 21.9522C66.3253 21.9522 65.4127 22.2235 64.7221 22.7908C64.0068 23.3334 63.5381 24.1227 63.3161 25.134H71.3077ZM63.8341 29.4998C64.5741 30.7084 65.8813 31.325 67.7806 31.325C69.3345 31.325 70.4937 30.807 71.3077 29.7464L74.5635 31.621C73.0096 33.8655 70.7404 34.9754 67.7066 34.9754C65.1167 34.9754 63.0202 34.1862 61.4662 32.6322C59.8877 31.0537 59.123 29.0804 59.123 26.6879C59.123 24.3447 59.8877 22.3715 61.4416 20.7929C62.9708 19.1897 64.9687 18.4004 67.4106 18.4004C69.7291 18.4004 71.6283 19.1897 73.0836 20.7929C74.5882 22.3962 75.3528 24.3694 75.3528 26.6879C75.3528 26.9592 75.3281 27.2306 75.3035 27.5019C75.2788 27.7485 75.2541 27.9952 75.2048 28.2665C71.2337 28.2665 67.2873 28.2665 63.3161 28.2665C63.4395 28.6858 63.5875 29.0804 63.8341 29.4998Z" fill="white" fill-opacity="0.3"/>
<path fill-rule="evenodd" clip-rule="evenodd" d="M59.9121 12.5546L94.2215 0V12.5546H59.9121Z" fill="#69686B"/>
</svg>
