<svg width="40" height="40" viewBox="0 0 40 40" fill="none" xmlns="http://www.w3.org/2000/svg">
<circle cx="20" cy="20" r="20" fill="#090808"/>
<path d="M28.8929 14.6249C28.2647 14.9005 27.5953 15.0831 26.8974 15.1718C27.6154 14.7431 28.1633 14.0695 28.421 13.2576C27.7516 13.6567 27.0125 13.9386 26.2249 14.0959C25.5893 13.4192 24.6834 13 23.6952 13C21.7778 13 20.2342 14.5563 20.2342 16.4641C20.2342 16.7386 20.2575 17.0026 20.3145 17.2538C17.4353 17.1134 14.8876 15.7335 13.1762 13.6314C12.8774 14.1498 12.7021 14.7431 12.7021 15.3819C12.7021 16.5813 13.3198 17.6445 14.2404 18.26C13.684 18.2495 13.1382 18.0879 12.6757 17.8335C12.6757 17.844 12.6757 17.8578 12.6757 17.8715C12.6757 19.5545 13.8762 20.9523 15.4504 21.2744C15.1685 21.3514 14.8612 21.3884 14.5424 21.3884C14.3207 21.3884 14.0968 21.3757 13.8867 21.3293C14.3354 22.7008 15.6087 23.7091 17.1228 23.7418C15.9445 24.6635 14.4484 25.2189 12.8288 25.2189C12.5448 25.2189 12.2724 25.2062 12 25.1713C13.5341 26.1606 15.3522 26.7255 17.3128 26.7255C23.6857 26.7255 27.1698 21.4465 27.1698 16.8706C27.1698 16.7175 27.1646 16.5697 27.1572 16.4229C27.8445 15.9351 28.422 15.3259 28.8929 14.6249Z" fill="white" fill-opacity="0.5"/>
</svg>
